<?xml version="1.0" encoding="iso-8859-1"?>
<!-- Uploaded to: SVG Repo, www.svgrepo.com, Generator: SVG Repo Mixer Tools -->
<svg fill="#000000" height="800px" width="800px" version="1.1" id="Layer_1" xmlns="http://www.w3.org/2000/svg" xmlns:xlink="http://www.w3.org/1999/xlink" 
	 viewBox="0 0 330 330" xml:space="preserve">
<path id="XMLID_2_" d="M279.662,113.269c-1.207-16.782-6.124-33.548-15.086-49.071C244.093,28.72,205.895,6.682,164.891,6.682
	c-20.079,0-39.93,5.334-57.407,15.424C80.881,37.464,61.853,62.263,53.902,91.934c-1.896,7.08-3.102,14.234-3.639,21.386
	C19.941,134.049,0,168.897,0,208.318c0,63.411,51.589,115,115,115c17.908,0,34.873-4.117,50-11.451
	c15.127,7.333,32.092,11.451,50,11.451c63.411,0,115-51.589,115-115C330,168.864,310.025,133.991,279.662,113.269z M226.54,180.295
	c-5.302-21.092-16.443-39.888-31.6-54.563c6.437-1.564,13.15-2.413,20.061-2.413c12.266,0,23.92,2.632,34.462,7.328
	C247.491,149.025,239.578,166.585,226.54,180.295z M165,276.996c-14.947-10.913-26.205-26.573-31.548-44.749
	c10.164,2.916,20.794,4.468,31.625,4.468c10.659,0,21.251-1.518,31.462-4.438C191.192,250.441,179.939,266.09,165,276.996z
	 M91.371,164.198c-6.04-10.462-9.695-21.845-10.932-33.508c10.567-4.723,22.258-7.372,34.561-7.372
	c6.91,0,13.624,0.849,20.061,2.413c-15.161,14.679-26.305,33.479-31.604,54.578C98.851,175.488,94.777,170.097,91.371,164.198z
	 M199.524,199.358c-10.843,4.827-22.593,7.357-34.447,7.357c-12.099,0-23.862-2.601-34.599-7.384
	c2.586-24.482,15.609-45.885,34.521-59.691C183.919,153.451,196.946,174.865,199.524,199.358z M122.483,48.087
	c12.923-7.461,27.587-11.405,42.407-11.405c30.321,0,58.564,16.291,73.705,42.516c3.443,5.963,6.057,12.178,7.92,18.511
	c-10.02-2.859-20.592-4.391-31.516-4.391c-17.908,0-34.873,4.117-50,11.451c-15.127-7.334-32.092-11.451-50-11.451
	c-10.932,0-21.512,1.534-31.536,4.396C89.643,76.669,103.42,59.093,122.483,48.087z M115,293.318c-46.869,0-85-38.131-85-85
	c0-22.655,8.927-43.252,23.426-58.504c2.579,10.17,6.574,20.048,11.965,29.384c8.775,15.2,20.811,27.924,34.917,37.514
	c2.104,29.027,15.03,55.098,34.753,74.193C128.624,292.469,121.91,293.318,115,293.318z M215,293.318
	c-6.91,0-13.624-0.849-20.061-2.413c19.709-19.083,32.633-45.132,34.749-74.137c24.018-16.323,40.095-40.503,46.771-67.074
	c14.566,15.264,23.54,35.909,23.54,58.624C300,255.187,261.869,293.318,215,293.318z"/>
</svg>